<?xml version="1.0" encoding="utf-8"?>
<!-- Generator: Adobe Illustrator 21.0.0, SVG Export Plug-In . SVG Version: 6.00 Build 0)  -->
<svg version="1.1" id="Layer_1" xmlns="http://www.w3.org/2000/svg" xmlns:xlink="http://www.w3.org/1999/xlink" x="0px" y="0px"
	 viewBox="0 0 177.2 108.8" style="enable-background:new 0 0 177.2 108.8;" xml:space="preserve">
<g>
	<g>
		<g>
			<g>
				<g>
					<g>
						<g>
							<path fill="#fff" d="M98.5,50.6H43.1c4.2,9.1,13.4,15.2,25,15.2h53.6h9.7c11.6,0,22.9-6.1,30.4-15.2H98.5z"/>
						</g>
						<g>
							<path fill="#fff" d="M133.7,15.2C133,6.4,126.2,0,116.8,0h-4.5H79.7C68.1,0,56.8,6.1,49.4,15.2h45.2h5.4h4.8h9.4c2.8,0,4.7,2.3,4.2,5.1
								c-0.5,2.6-2.8,4.8-5.4,5c-0.2,0-0.3,0-0.5,0H92.7l-62.3,0c-12.4,0-23.4,6-30.3,15.2h109.5c8.2,0,16.1-4.9,20.5-11.9
								c1.6-2.6,2.8-5.4,3.3-8.4C133.8,18.5,133.8,16.8,133.7,15.2z"/>
						</g>
					</g>
				</g>
			</g>
		</g>
	</g>
</g>
<g>
	<g>
		<g>
			<g>
				<path fill="#fff" d="M19.5,87c0,0.1,0,0.2,0,0.2c-0.1,0.6-0.4,2.4-0.4,2.4c0,0,0,0,0,0.1l0,0.2c-0.1,0.4-0.4,0.7-0.9,0.7h-1.8h-6h-0.2
					C8.9,90.6,8.3,91,8,92c-0.1,0.2-0.1,0.5-0.2,0.7l-0.4,2.4h7.9c0.3,0,0.5,0.2,0.5,0.5v0.1l-0.5,2.8c-0.1,0.3-0.4,0.6-0.7,0.6H6.7
					l-1.5,8.5c-0.1,0.4-0.5,0.8-0.9,0.8H0.7c-0.4,0-0.7-0.3-0.7-0.7v-0.1l2.6-15.1c0.9-5,3.7-6.2,7.7-6.2h8.5h0
					c0.4,0,0.6,0.2,0.6,0.6V87L19.5,87z M172.1,94c0,0.5-0.1,1-0.2,1.5h-8.3c0.5-2.9,2-5,5.1-5C170.8,90.5,172.1,91.7,172.1,94
					 M177.2,94.1c0-4.6-2.5-8.1-7.7-8.1c-6,0-9.9,2.7-11.2,10.1l-0.4,2.4c-0.2,0.8-0.2,1.6-0.2,2.4c0,5.9,4.2,7.9,7.7,7.9
					c3.5,0,5.3-0.2,7.9-0.7c0.7-0.1,0.9-0.4,1-1l0.5-2.6v-0.2c0-0.4-0.3-0.4-0.6-0.4H174c-1.7,0.2-4.4,0.4-7.3,0.4
					c-2.9,0-4-1.4-4-3.5c0-0.5,0.1-1.1,0.2-1.6h12.8c0.6,0,0.8-0.4,0.9-1l0.3-1.9C177.1,95.6,177.2,94.8,177.2,94.1 M154,99.5
					l0.7-4.4V95c0-0.4-0.2-0.6-0.6-0.6h-3.5c-0.4,0-0.9,0.3-0.9,0.7l-0.7,4.4v0.2c0,0.4,0.2,0.6,0.6,0.6h3.5
					C153.5,100.3,153.9,100,154,99.5 M121.8,108.1l0.5-3c0.1-0.4-0.2-0.7-0.5-0.7c-0.1,0-0.1,0-0.2,0h-0.1h-0.2
					c-2.1,0-3.1-0.7-3.1-2.9c0-0.6,0-1.3,0.2-2.1l2.2-12.1V87c0-0.4-0.2-0.7-0.6-0.7h-3.7c-0.4,0-0.8,0.4-0.9,0.8l-2.1,11.8
					c-0.2,0.9-0.2,1.8-0.2,2.5c0,6.4,5.3,7.3,7.5,7.3h0.2l0.1,0C121.2,108.8,121.7,108.5,121.8,108.1 M108.2,99.7l2.2-12.5V87
					c0-0.4-0.2-0.7-0.6-0.7h-3.7c-0.4,0-0.8,0.4-0.9,0.8l-2.2,12.1c-0.7,4-2.3,5-4.6,5h-0.2c-2.1,0-3.1-0.7-3.1-2.9
					c0-0.6,0-1.3,0.2-2.1l2.2-12.1V87c0-0.4-0.2-0.7-0.6-0.7h-3.7c-0.4,0-0.8,0.4-0.9,0.8l-2.1,11.8c-0.2,0.9-0.2,1.8-0.2,2.5
					c0,6.4,5.3,7.3,7.5,7.3h0.2C100.7,108.8,106.7,108.2,108.2,99.7 M86.1,93.9c0.1-0.7,0.2-1.4,0.2-2.1c0-3.7-2.1-5.8-6.7-5.8h-0.9
					c-2.1,0-4.2,0.5-5.5,1.5c-1-1-2.6-1.5-4.9-1.5h-0.9c-5,0-8.3,1.9-9.3,7.5l-2.5,14.1v0.2c0,0.4,0.2,0.7,0.6,0.7h3.7
					c0.4,0,0.8-0.4,0.9-0.8l2.5-14.1c0.5-2.7,1.5-3.2,3.3-3.2h0.9c1.7,0,2.2,0.8,2.2,1.8c0,0.4-0.1,0.9-0.2,1.3l-2.5,14.1v0.2
					c0,0.4,0.2,0.7,0.6,0.7h3.7c0.4,0,0.8-0.4,0.9-0.8l2.5-14.1c0.4-2.2,0.9-3.2,3.1-3.2h0.9c1.8,0,2.4,0.7,2.4,1.8
					c0,0.4-0.1,0.8-0.2,1.3l-2.5,14.1v0.2c0,0.4,0.2,0.7,0.6,0.7h3.7c0.4,0,0.8-0.4,0.9-0.8L86.1,93.9z M55.2,89.7l0.5-3v-0.1
					c0-0.5-0.6-0.5-1-0.5c-3.4,0-5.5,0.3-8.2,1.1c-0.7,0.2-1.2,0.7-1.3,1.2l-3.4,19.3v0.2c0,0.4,0.2,0.7,0.6,0.7h3.6
					c0.4,0,0.8-0.4,0.9-0.8l3-17c1-0.2,2.6-0.3,3.9-0.3C54.8,90.4,55.1,90.1,55.2,89.7 M172.1,94c0,0.5-0.1,1-0.2,1.5h-8.3
					c0.5-2.9,2-5,5.1-5C170.8,90.5,172.1,91.7,172.1,94 M177.2,94.1c0-4.6-2.5-8.1-7.7-8.1c-6,0-9.9,2.7-11.2,10.1l-0.4,2.4
					c-0.2,0.8-0.2,1.6-0.2,2.4c0,5.9,4.2,7.9,7.7,7.9c3.5,0,5.3-0.2,7.9-0.7c0.7-0.1,0.9-0.4,1-1l0.5-2.6v-0.2
					c0-0.4-0.3-0.4-0.6-0.4H174c-1.7,0.2-4.4,0.4-7.3,0.4c-2.9,0-4-1.4-4-3.5c0-0.5,0.1-1.1,0.2-1.6h12.8c0.6,0,0.8-0.4,0.9-1
					l0.3-1.9C177.1,95.6,177.2,94.8,177.2,94.1 M137.2,90.3c-3.4,0-4.6,2.2-5.2,5.6l-0.5,3c-0.2,0.9-0.2,1.6-0.2,2.3
					c0,2.2,0.9,3.3,3.5,3.3c1.4,0,3-0.1,3.8-0.3l2.4-13.7C140.2,90.4,138.7,90.3,137.2,90.3 M146.6,88.1l-3.3,18.6
					c-0.1,0.6-0.3,0.8-1.3,1.1c-2.6,0.6-5.5,1-8.1,1c-5.3,0-7.9-3.2-7.9-7.6c0-0.7,0.1-1.5,0.2-2.2l0.5-3c1.1-6.8,4.8-9.9,11.2-9.9
					c2.5,0,5.4,0.4,7.7,1c0.7,0.2,0.9,0.4,0.9,0.7C146.6,87.9,146.6,88,146.6,88.1 M34.5,94.1c0,0.5,0,1.1-0.2,1.7L33.8,99
					c-0.7,3.7-2.4,5.3-5.1,5.3c-2.3,0-3.5-1.3-3.5-3.6c0-0.5,0-1.1,0.2-1.7l0.6-3.2c0.7-3.9,2.7-5.3,5.1-5.3
					C33.4,90.5,34.5,91.8,34.5,94.1 M39.7,93.8c0-4.1-2.5-7.7-7.9-7.7c-6.2,0-9.9,2.9-11.1,9.8L20.2,99c-0.1,0.6-0.2,1.3-0.2,1.9
					c0,4.1,2.5,7.9,7.9,7.9c6.2,0,9.9-3.3,11.1-9.8l0.6-3.2C39.6,95.1,39.7,94.4,39.7,93.8"/>
			</g>
		</g>
	</g>
</g>
</svg>
